<?xml version="1.0" standalone="no"?>
<!DOCTYPE svg PUBLIC "-//W3C//DTD SVG 20010904//EN"
 "http://www.w3.org/TR/2001/REC-SVG-20010904/DTD/svg10.dtd">
<svg version="1.0" xmlns="http://www.w3.org/2000/svg"
 width="782.000000pt" height="224.000000pt" viewBox="0 0 782.000000 224.000000"
 preserveAspectRatio="xMidYMid meet">

<g transform="translate(0.000000,224.000000) scale(0.100000,-0.100000)"
fill="#000000" stroke="none">
<path d="M102 1093 l3 -918 3800 0 3800 0 3 918 2 917 -3805 0 -3805 0 2 -917z
m7548 465 c-1 -300 -3 -398 -12 -383 -41 76 -130 125 -226 125 -139 0 -235
-83 -249 -215 -10 -97 35 -184 120 -231 44 -25 63 -29 127 -29 93 0 158 30
207 94 l33 43 0 -366 0 -366 -3745 0 -3745 0 0 865 0 865 3745 0 3745 0 0
-402z m-179 -395 c32 -19 59 -68 59 -106 0 -37 -41 -91 -81 -104 -47 -15 -84
-6 -119 29 -24 24 -30 38 -30 74 0 56 12 79 53 104 39 24 80 25 118 3z"/>
<path d="M230 1060 l0 -690 1705 0 1705 0 0 690 0 690 -1705 0 -1705 0 0 -690z
m3203 226 c43 -18 75 -55 83 -94 6 -31 5 -32 -25 -32 -23 0 -31 4 -31 18 0 63
-157 91 -197 36 -36 -49 -3 -93 90 -119 126 -35 177 -78 177 -146 0 -80 -98
-141 -201 -125 -77 11 -128 54 -144 119 -7 25 -5 27 22 27 22 0 32 -7 47 -34
22 -42 52 -56 117 -56 40 0 55 5 74 25 51 51 23 96 -78 126 -140 42 -177 72
-177 145 0 51 36 99 83 113 48 14 124 13 160 -3z m-2823 -14 c50 -25 80 -74
80 -134 0 -103 -55 -149 -187 -156 l-83 -5 0 -73 0 -74 -28 0 c-25 0 -29 3
-26 28 1 15 2 118 3 230 l1 202 103 0 c77 0 110 -4 137 -18z m420 15 c0 -1 41
-101 90 -221 50 -121 90 -223 90 -228 0 -4 -13 -8 -29 -8 -25 0 -31 6 -48 53
l-20 52 -114 0 -113 0 -21 -52 c-18 -49 -22 -53 -53 -53 -18 0 -31 3 -29 8 5
6 157 377 178 430 6 16 17 22 39 22 16 0 30 -1 30 -3z m572 -13 c48 -23 71
-60 75 -118 5 -60 -19 -107 -67 -134 -16 -9 -30 -21 -30 -25 0 -5 25 -45 55
-89 l55 -79 -37 3 c-34 3 -42 10 -93 83 l-56 80 -49 0 -50 0 -3 -82 c-3 -81
-3 -83 -27 -83 l-25 0 0 230 0 230 110 0 c79 0 118 -4 142 -16z m523 -196
c109 -264 105 -248 68 -248 -27 0 -32 5 -50 53 l-20 52 -114 0 -113 0 -21 -52
c-18 -49 -22 -53 -52 -53 l-32 0 13 33 c8 17 46 109 85 204 39 95 76 184 81
198 7 19 17 25 38 25 29 0 31 -5 117 -212z m378 75 l88 -135 89 136 c82 125
92 136 120 136 l30 0 0 -230 0 -230 -30 0 -30 0 0 177 0 177 -77 -114 c-55
-80 -85 -116 -100 -118 -18 -3 -35 17 -100 114 l-78 117 -3 -177 -2 -176 -28
0 -27 0 0 230 0 230 30 -1 c27 0 38 -13 118 -136z m537 57 c0 -79 0 -80 -25
-80 -25 0 -25 1 -25 80 0 79 0 80 25 80 25 0 25 -1 25 -80z"/>
<path d="M420 1140 l0 -100 71 0 c103 0 138 24 139 95 0 74 -45 105 -157 105
l-53 0 0 -100z"/>
<path d="M953 1098 c-23 -56 -41 -104 -39 -106 2 -1 42 -2 88 0 l85 3 -41 102
c-22 57 -43 103 -46 103 -3 0 -25 -46 -47 -102z"/>
<path d="M1400 1145 l0 -95 65 0 c106 0 155 30 155 97 0 63 -52 93 -162 93
l-58 0 0 -95z"/>
<path d="M1963 1098 c-23 -56 -41 -104 -39 -106 2 -1 42 -2 88 0 l85 3 -41
102 c-22 57 -43 103 -46 103 -3 0 -25 -46 -47 -102z"/>
<path d="M4280 1284 c-88 -38 -137 -105 -147 -199 -19 -178 158 -309 337 -250
66 22 134 87 149 141 50 180 -59 325 -242 324 -34 -1 -78 -8 -97 -16z m161
-121 c32 -19 59 -68 59 -106 0 -37 -41 -91 -81 -104 -47 -15 -84 -6 -119 29
-24 24 -30 38 -30 74 0 56 12 79 53 104 39 24 80 25 118 3z"/>
<path d="M6147 1286 c-149 -54 -203 -230 -111 -367 54 -80 189 -119 294 -84
66 22 134 87 149 141 50 179 -58 325 -238 324 -31 -1 -73 -7 -94 -14z m154
-123 c31 -19 59 -68 59 -105 0 -36 -37 -88 -75 -103 -45 -19 -89 -10 -126 27
-23 24 -29 38 -29 74 0 56 12 79 53 104 39 24 80 25 118 3z"/>
<path d="M3700 1060 l0 -230 70 0 70 0 0 53 0 54 77 11 c123 17 168 63 168
172 0 82 -18 113 -85 148 -39 19 -59 22 -172 22 l-128 0 0 -230z m226 112 c23
-15 34 -50 25 -75 -11 -28 -29 -37 -77 -37 l-34 0 0 60 0 60 38 0 c20 0 42 -4
48 -8z"/>
<path d="M4710 1061 l0 -231 65 0 65 0 0 65 c0 63 1 65 25 65 21 0 31 -11 57
-65 l32 -65 77 0 78 0 -43 77 -43 78 27 25 c53 49 64 153 23 209 -46 60 -63
66 -219 69 l-144 3 0 -230z m238 107 c7 -7 12 -27 12 -45 0 -39 -21 -53 -79
-53 l-41 0 0 55 0 55 48 0 c26 0 53 -5 60 -12z"/>
<path d="M5150 1230 l0 -60 70 0 70 0 0 -170 0 -170 70 0 70 0 0 170 0 170 70
0 70 0 0 60 0 60 -210 0 -210 0 0 -60z"/>
<path d="M5640 1060 l0 -230 65 0 65 0 0 70 0 69 78 3 77 3 0 50 0 50 -77 3
-78 3 0 44 0 45 85 0 85 0 0 60 0 60 -150 0 -150 0 0 -230z"/>
<path d="M6570 1060 l0 -230 160 0 160 0 0 60 0 60 -95 0 -95 0 0 170 0 170
-65 0 -65 0 0 -230z"/>
<path d="M6950 1060 l0 -230 70 0 70 0 0 230 0 230 -70 0 -70 0 0 -230z"/>
</g>
</svg>
