<?xml version="1.0" encoding="UTF-8" standalone="no"?>
<!-- Uploaded to: SVG Repo, www.svgrepo.com, Generator: SVG Repo Mixer Tools -->
<svg width="800px" height="800px" viewBox="0 0 64 64" version="1.1" xmlns="http://www.w3.org/2000/svg" xmlns:xlink="http://www.w3.org/1999/xlink">
    
    <title>db-network-2</title>
    <desc>Created with Sketch.</desc>
    <defs>

</defs>
    <g id="64px-Glyph" stroke="none" stroke-width="1" fill="none" fill-rule="evenodd">
        <g id="db-network-2" fill="#000000">
            <path d="M22,50 L5,50 C4.447,50 4,50.447 4,51 L4,55 C4,55.553 4.447,56 5,56 L22,56 L22,50 Z" id="Fill-416">

</path>
            <path d="M57,50 L40,50 L40,56 L57,56 C57.553,56 58,55.553 58,55 L58,51 C58,50.447 57.553,50 57,50" id="Fill-417">

</path>
            <path d="M38,49 C38,48.447 37.553,48 37,48 L25,48 C24.447,48 24,48.447 24,49 L24,57 C24,57.553 24.447,58 25,58 L37,58 C37.553,58 38,57.553 38,57 L38,49 Z" id="Fill-418">

</path>
            <path d="M31,44 C29.941,44 28.945,43.977 28,43.935 L28,46 L34,46 L34,43.935 C33.055,43.977 32.059,44 31,44" id="Fill-419">

</path>
            <path d="M31,20 C21.031,20 16.263,18.042 14,16.001 L14,20 C14,24.145 22.538,26 31,26 C39.462,26 48,24.145 48,20 L48,16.001 C45.737,18.042 40.969,20 31,20" id="Fill-420">

</path>
            <path d="M31,34 C39.462,34 48,32.145 48,28 L48,24.001 C45.737,26.042 40.969,28 31,28 C21.031,28 16.263,26.042 14,24.001 L14,28 C14,32.145 22.538,34 31,34" id="Fill-421">

</path>
            <path d="M31,36 C21.031,36 16.263,34.042 14,32.001 L14,36 C14,40.145 22.538,42 31,42 C39.462,42 48,40.145 48,36 L48,32.001 C45.737,34.042 40.969,36 31,36" id="Fill-422">

</path>
            <path d="M31,18 C39.462,18 48,16.145 48,12 C48,7.855 39.461,6 30.999,6 C22.538,6 14,7.855 14,12 C14,16.145 22.538,18 31,18" id="Fill-423">

</path>
        </g>
    </g>
</svg>